<svg xmlns="http://www.w3.org/2000/svg" xmlns:xlink="http://www.w3.org/1999/xlink" viewBox="0 0 153.47 174.51"><defs><style>.cls-1{fill:url(#linear-gradient);}.cls-2{fill:url(#linear-gradient-2);}.cls-3{fill:#fff;}</style><linearGradient id="linear-gradient" x1="76.52" y1="87.25" x2="153.47" y2="87.25" gradientUnits="userSpaceOnUse"><stop offset="0.42" stop-color="#00b6e3"/><stop offset="0.68" stop-color="#00b4e1"/><stop offset="0.77" stop-color="#00afda"/><stop offset="0.84" stop-color="#00a5cf"/><stop offset="0.89" stop-color="#0097be"/><stop offset="0.94" stop-color="#0085a8"/><stop offset="0.98" stop-color="#006f8d"/><stop offset="1" stop-color="#005f79"/></linearGradient><linearGradient id="linear-gradient-2" x1="134.93" y1="46.8" x2="45.9" y2="201" gradientUnits="userSpaceOnUse"><stop offset="0" stop-color="#5cc4dd"/><stop offset="1" stop-color="#005f79"/></linearGradient></defs><title>Asset 1</title><g id="Layer_2" data-name="Layer 2"><g id="Layer_1-2" data-name="Layer 1"><polygon class="cls-1" points="94.74 0 76.52 13.07 139.07 174.5 153.47 145.71 94.74 0"/><polygon class="cls-2" points="76.52 13.07 0 174.5 139.07 174.5 76.52 13.07"/><path class="cls-3" d="M69.34,55.49,28.51,142.07a1,1,0,0,0,.21,1.19l3.1,3.1a1.06,1.06,0,0,0,1.23.19l50.6-26.3L72.41,136.93,72,128.46,57.34,165.38l29.28-29-8.34,2.94,19.66-27.26a1,1,0,0,0,0-1.18l-2.66-3.5a1,1,0,0,0-1.23-.28l-54.5,27.57,36.38-76a.45.45,0,0,0-.22-.6L70,55.27A.46.46,0,0,0,69.34,55.49Z"/></g></g></svg>