<svg xmlns="http://www.w3.org/2000/svg" xmlns:xlink="http://www.w3.org/1999/xlink" viewBox="0 0 537.62 174.51"><defs><style>.cls-1{fill:url(#linear-gradient);}.cls-2{fill:url(#linear-gradient-2);}.cls-3{fill:#fff;}.cls-4{fill:#0192b7;}.cls-5{fill:#5cc4dd;}</style><linearGradient id="linear-gradient" x1="76.52" y1="87.25" x2="153.47" y2="87.25" gradientUnits="userSpaceOnUse"><stop offset="0.42" stop-color="#00b6e3"/><stop offset="0.68" stop-color="#00b4e1"/><stop offset="0.77" stop-color="#00afda"/><stop offset="0.84" stop-color="#00a5cf"/><stop offset="0.89" stop-color="#0097be"/><stop offset="0.94" stop-color="#0085a8"/><stop offset="0.98" stop-color="#006f8d"/><stop offset="1" stop-color="#005f79"/></linearGradient><linearGradient id="linear-gradient-2" x1="134.93" y1="46.8" x2="45.9" y2="201" gradientUnits="userSpaceOnUse"><stop offset="0" stop-color="#5cc4dd"/><stop offset="1" stop-color="#005f79"/></linearGradient></defs><title>Asset 5</title><g id="Layer_2" data-name="Layer 2"><g id="Layer_1-2" data-name="Layer 1"><polygon class="cls-1" points="94.74 0 76.52 13.07 139.07 174.5 153.47 145.71 94.74 0"/><polygon class="cls-2" points="76.52 13.07 0 174.5 139.07 174.5 76.52 13.07"/><path class="cls-3" d="M69.34,55.49,28.51,142.07a1,1,0,0,0,.21,1.19l3.1,3.1a1.06,1.06,0,0,0,1.23.19l50.6-26.3L72.41,136.93,72,128.46,57.34,165.38l29.28-29-8.34,2.94,19.66-27.26a1,1,0,0,0,0-1.18l-2.66-3.5a1,1,0,0,0-1.23-.28l-54.5,27.57,36.38-76a.45.45,0,0,0-.22-.6L70,55.27A.46.46,0,0,0,69.34,55.49Z"/><path class="cls-4" d="M262.51,41c-1.44-4.6-3.46-9.86-10.08-9.86a6.63,6.63,0,0,0-6.91,7c0,4,2.66,6.34,9,9.51,7.7,3.81,12.6,7.56,12.6,14.69,0,8.49-7.06,14.69-17.36,14.69a41.47,41.47,0,0,1-12.09-2.24c-.44-1.65-1.66-9.14-2.16-12.52l2.8-.65C239.75,66.17,243.79,74,250.84,74c4.4,0,7.06-2.73,7.06-7.34,0-4.18-2.59-6.63-8.64-9.87-7.49-4-12.39-7.63-12.39-15.12s5.91-13.54,16.71-13.54a52.91,52.91,0,0,1,10.3,1.3c.28,2.67.79,6.41,1.36,11Z"/><path class="cls-4" d="M314.35,31.83c-4.61.5-6.27,1.51-8.86,5.9s-4.82,8.43-8.35,15.63a7.27,7.27,0,0,0-.79,3.81V66.1c0,6.27.57,6.48,6.48,7.2V76H280.07V73.3c5.69-.72,6.2-.93,6.2-7.2V57.82a6.3,6.3,0,0,0-.79-3.31c-2.09-4.25-4.76-9.07-9.08-16.63-2.66-4.68-3.74-5.62-7.92-6.05V29.16h21.1v2.67c-4.82.65-4.68,1.58-3.46,4.1,2.38,4.68,5.48,10.44,8.21,15.7,2.16-4,5.62-11,7.63-15.34,1.37-2.88.8-3.81-4.39-4.46V29.16h16.78Z"/><path class="cls-4" d="M343.44,41c-1.44-4.6-3.46-9.86-10.08-9.86a6.64,6.64,0,0,0-6.92,7c0,4,2.67,6.34,9,9.51,7.71,3.81,12.6,7.56,12.6,14.69,0,8.49-7.05,14.69-17.35,14.69a41.61,41.61,0,0,1-12.1-2.24c-.43-1.65-1.65-9.14-2.16-12.52l2.81-.65C320.68,66.17,324.71,74,331.77,74c4.39,0,7.06-2.73,7.06-7.34,0-4.18-2.59-6.63-8.64-9.87-7.49-4-12.39-7.63-12.39-15.12s5.91-13.54,16.71-13.54a52.64,52.64,0,0,1,10.29,1.3c.29,2.67.8,6.41,1.37,11Z"/><path class="cls-4" d="M393.19,41.62a22.21,22.21,0,0,0-3.1-7.06c-1.29-1.51-1.87-2.08-6.12-2.08h-4.61V66.32c0,6.05.72,6.48,7.13,7V76h-23.9V73.3c6.12-.5,6.77-.93,6.77-7V32.48H365c-4,0-5.18.64-6.55,2.37a27.16,27.16,0,0,0-3,6.84h-2.74c.51-5.25,1-10.87,1.15-14.33H356c1.08,1.66,2,1.8,4.11,1.8h28.8a4.77,4.77,0,0,0,4.18-1.8h2.08c.08,3,.36,9.36.73,14Z"/><path class="cls-4" d="M440.49,63.73c-.36,1.94-2.38,10.22-3,12.24H400.1v-2.6c6.55-.64,7-1,7-7.05V38.81c0-6.12-.86-6.55-5.76-7V29.16h23.4c7.56,0,10.08-.07,11.09-.14.07,1.29.43,7.2.72,11.66l-2.81.36c-.65-2.44-1.87-5.4-3.09-6.69-1.3-1.44-2.24-1.87-5.91-1.87H420c-2.73,0-3,.14-3,2.59v15h7.05c4,0,4.76-1.08,5.84-6.2h2.8V60h-2.8c-1.16-5.33-1.73-6.19-5.91-6.19h-7V66.17c0,5,.14,6.48,4.61,6.56h5.11c4,0,5.11-.51,6.7-2.45a32.44,32.44,0,0,0,4.39-7.2Z"/><path class="cls-4" d="M483.62,76V73.3c5.47-.57,5.83-1.08,5.83-7.56l-.07-28.08C484.19,50,478.5,63.73,473.32,76h-2.38c-4.68-11.74-9.79-25.13-15-37.73C455,60.85,455,65.31,455,67.9c.07,3.89,1.51,4.9,6.91,5.4V76H444.09V73.3c4.1-.36,6-1.15,6.55-5.47.29-2.16.57-6.26,2.23-30,.22-3.45-.29-5.4-6.48-6V29.16h15.55l13.9,31.76,14-31.76H505v2.67c-5.76.57-6.41,1.15-6.26,6.91l.57,27c.08,6.48.36,6.77,6.2,7.56V76Z"/><path class="cls-5" d="M249.34,99.7c-4.61.5-6.12,1.22-6.34,4.53-.07,2.31-.22,5.33-.22,12v28.87h-2.73l-30.82-37.66v18c0,6.48.21,9.72.36,11.81.14,3.67,1.94,4.75,7.13,5.18v2h-17.5v-2c4.47-.36,6.19-1.44,6.48-5,.22-2.3.36-5.54.36-12.1V107c0-2-.14-3.17-1.44-4.75-1.37-1.8-2.88-2.23-6.41-2.59v-2H209l30.53,36.22V116.26c0-6.7-.14-9.79-.36-12-.21-3.24-1.87-4.25-7.63-4.61v-2h17.79Z"/><path class="cls-5" d="M292.46,133c-.43,1.87-2.37,9.29-3.09,11.45h-35v-2c6.7-.51,7.2-1.15,7.2-7.06V107c0-6.41-.79-6.77-6.19-7.27v-2h22c6.77,0,9.58-.07,10.44-.14.08,1.8.36,7.2.65,11l-2.16.36a24.26,24.26,0,0,0-2.16-5.47c-1.15-2.37-2.81-2.88-7.13-2.88h-6.84c-2.23,0-2.37.22-2.37,2.31v15.91h8c5.4,0,5.76-1.08,6.62-6h2.24v14.84h-2.24c-.93-5.19-1.51-5.91-6.69-5.91h-7.92v14.33c0,5,1.58,5.47,5.18,5.55h6.7c4.39,0,5.11-.65,6.69-2.53a30.8,30.8,0,0,0,3.89-6.62Z"/><path class="cls-5" d="M335.45,109a27.49,27.49,0,0,0-2.31-6c-1.15-1.94-1.87-2.45-5.83-2.45h-7.2v35.07c0,5.62.57,6.41,7.41,6.84v2H306.57v-2c6.7-.43,7.27-1.15,7.27-6.84V100.56h-6.55c-4,0-5.11.43-6.34,2.59a32.73,32.73,0,0,0-2.37,5.84h-2.16c.43-4.4.86-8.93,1.08-13h1.65c1.08,1.72,1.88,1.65,3.89,1.65h28.52c2,0,2.59-.29,3.67-1.65H337c0,3.38.29,8.56.65,12.74Z"/><path class="cls-5" d="M411,99.7c-5,.72-5.76,1.29-7.7,7.2-2.38,7.2-8.14,25.49-12.1,38.38h-2.45c-3.74-11.24-8.56-25.13-12.31-35.79-4.18,12.39-8.42,24.7-12.17,35.79h-2.37c-3.6-12.39-7.71-25.85-11.6-38.45-1.87-5.84-2.66-6.63-7.34-7.13v-2h17.78v2c-5.32.57-5.47,1.37-4.46,5,2.81,9.72,5.69,19.29,8.64,29.45,4-11.45,8.28-24,11.95-35.79h2.31c4,12.24,8.06,23.62,12.24,35.86,3-9.58,7.13-22.4,8.71-28.66,1.08-4.18.51-5.11-5.62-5.83v-2H411Z"/><path class="cls-5" d="M434.08,144.49v-2c4.68-.58,5.26-1.3,4.25-4s-2.37-6.41-3.89-11H418.89c-1.15,3.24-2.23,6-3.24,9-1.59,4.68-.58,5.26,5.33,6v2H404.34v-2c4.54-.58,5.69-1.08,8.21-7.56l14.91-37.8,2.3-.44c4.54,12.32,9.51,25.93,14,38.38,2.31,6.27,3,6.84,8.07,7.42v2Zm-7.2-38.38c-2.3,6.19-4.75,12.74-6.91,18.43h13.47Z"/><path class="cls-5" d="M497.44,145.06c-.93,0-1.72-.07-2.66-.14-5.26-.36-8.06-1.73-11.23-6.2-2.67-3.67-5.26-8.2-7.56-11.88-1.44-2.3-2.38-2.73-6.05-2.73h-2.52v11.3c0,6.12.79,6.48,6.55,7.06v2H454.74v-2c6-.65,6.49-.94,6.49-7.06V106.68c0-6.12-.8-6.33-6.49-7v-2h18.37c5.25,0,8.78.65,11.52,2.45a10.75,10.75,0,0,1,4.89,9.5c0,6.2-4,10.08-9.29,12.39,1.3,2.23,4.4,7.06,6.56,10.3a65.48,65.48,0,0,0,5.69,7.41,10.33,10.33,0,0,0,5.25,3.31Zm-26.57-23.4c3.75,0,6.12-.58,7.92-2.09,2.81-2.09,4-5,4-8.86,0-7.7-5.12-10.51-10.66-10.51-2.09,0-3.31.29-3.82.72s-.86,1.23-.86,3.1v17.64Z"/><path class="cls-5" d="M537.62,133c-.43,1.87-2.38,9.29-3.1,11.45h-35v-2c6.69-.51,7.2-1.15,7.2-7.06V107c0-6.41-.79-6.77-6.19-7.27v-2h22c6.77,0,9.58-.07,10.44-.14.07,1.8.36,7.2.65,11l-2.16.36a24.26,24.26,0,0,0-2.16-5.47c-1.15-2.37-2.81-2.88-7.13-2.88h-6.84c-2.23,0-2.38.22-2.38,2.31v15.91h8c5.4,0,5.76-1.08,6.62-6h2.23v14.84h-2.23c-.94-5.19-1.51-5.91-6.7-5.91H513v14.33c0,5,1.59,5.47,5.19,5.55h6.69c4.4,0,5.12-.65,6.7-2.53a30.8,30.8,0,0,0,3.89-6.62Z"/></g></g></svg>