<?xml version="1.0" standalone="no"?>
<!DOCTYPE svg PUBLIC "-//W3C//DTD SVG 20010904//EN"
 "http://www.w3.org/TR/2001/REC-SVG-20010904/DTD/svg10.dtd">
<svg version="1.0" xmlns="http://www.w3.org/2000/svg"
 width="532.000000pt" height="532.000000pt" viewBox="0 0 532.000000 532.000000"
 preserveAspectRatio="xMidYMid meet">
<metadata>
Created by potrace 1.11, written by Peter Selinger 2001-2013
</metadata>
<g transform="translate(0.000000,532.000000) scale(0.100000,-0.100000)"
fill="#000000" stroke="none">
<path d="M2950 5025 c-129 -101 -236 -188 -238 -193 -1 -4 30 -98 69 -208 170
-476 199 -565 181 -555 -9 5 -118 68 -242 140 -220 127 -225 129 -236 108 -13
-24 -174 -388 -454 -1027 -98 -223 -300 -684 -450 -1025 -149 -341 -423 -964
-607 -1385 -184 -421 -337 -768 -340 -773 -2 -4 846 -7 1885 -7 l1889 0 28 63
c16 34 97 210 181 391 85 180 159 342 165 360 11 30 -4 74 -234 687 -261 698
-442 1183 -995 2668 -191 514 -352 936 -357 937 -6 2 -116 -80 -245 -181z
m-340 -1465 c51 -26 80 -46 80 -57 0 -9 -119 -284 -264 -612 -622 -1402 -715
-1615 -713 -1617 1 -1 43 20 92 48 429 237 1372 752 1385 755 23 6 104 -110
98 -140 -2 -12 -122 -198 -266 -414 l-261 -391 100 39 c55 21 105 39 111 39 5
0 -23 -35 -64 -78 -40 -43 -217 -232 -392 -420 -176 -188 -321 -340 -323 -338
-2 2 46 140 107 307 62 167 148 403 192 524 44 121 84 224 89 229 5 6 9 -32 9
-96 0 -59 4 -109 8 -112 8 -5 286 433 279 440 -1 2 -149 -79 -327 -179 -896
-504 -1027 -577 -1038 -577 -18 0 -111 101 -112 121 0 8 56 143 124 300 169
387 954 2196 971 2237 8 17 19 32 25 32 6 0 46 -18 90 -40z"/>
</g>
</svg>
